<?xml version="1.0" encoding="UTF-8"?>
<svg version="1.1" xmlns="http://www.w3.org/2000/svg" width="554" height="554">
<path d="M0 0 C1.78181864 2.67272795 2.57249167 4.43919292 3.48046875 7.4453125 C3.75358887 8.34403076 4.02670898 9.24274902 4.30810547 10.16870117 C4.59830566 11.14427979 4.88850586 12.1198584 5.1875 13.125 C5.49574707 14.14762939 5.80399414 15.17025879 6.12158203 16.22387695 C8.00168443 22.50697463 9.79482106 28.81025919 11.53442383 35.13354492 C14.36286419 45.40974606 17.3281204 55.63667236 20.5 65.8125 C20.84337402 66.95033936 21.18674805 68.08817871 21.54052734 69.26049805 C26.2442954 84.09470397 33.65565224 96.7756769 47.5390625 104.3515625 C60.53324044 110.54066306 74.70101936 114.06070785 88.49414062 117.99658203 C94.44316961 119.69926372 100.38452938 121.42833942 106.32659912 123.15512085 C108.32310465 123.73492899 110.31994627 124.31356446 112.31689453 124.8918457 C119.22189713 126.89339297 126.1194167 128.91594821 133 131 C132 133 132 133 130.18774414 133.75854492 C129.39489014 133.99677979 128.60203613 134.23501465 127.78515625 134.48046875 C126.88490723 134.75366943 125.9846582 135.02687012 125.05712891 135.30834961 C124.06890137 135.59846924 123.08067383 135.88858887 122.0625 136.1875 C121.03560059 136.49502197 120.00870117 136.80254395 118.95068359 137.11938477 C111.37746427 139.36323811 103.76119648 141.42058765 96.125 143.4375 C58.02338495 152.12643892 58.02338495 152.12643892 29.36328125 176.515625 C20.70255509 192.29849559 16.34534766 210.8404164 11.4375 228.0625 C10.74819977 230.46785788 10.05780436 232.87289962 9.36734009 235.27792358 C8.91568187 236.85154072 8.46448092 238.42528919 8.01376343 239.99917603 C5.71706476 248.0115978 3.3630807 256.00694506 1 264 C-1.1682757 260.74758645 -2.05305185 258.01019917 -3.1953125 254.2734375 C-3.40858185 253.57858246 -3.6218512 252.88372742 -3.84158325 252.16781616 C-5.70671306 246.05473572 -7.50417956 239.92141605 -9.3046875 233.7890625 C-9.73953461 232.30922882 -9.73953461 232.30922882 -10.1831665 230.79949951 C-12.63662982 222.44589304 -12.63662982 222.44589304 -13.76513672 218.55957031 C-22.8092772 183.79332626 -22.8092772 183.79332626 -47.14453125 159.26953125 C-60.15597396 153.10918405 -74.22805804 149.51700042 -88.03051758 145.56433105 C-89.97860325 145.00613098 -91.92593491 144.44537533 -93.87304688 143.88378906 C-99.76622526 142.18552352 -105.66196593 140.4967513 -111.5625 138.82421875 C-112.60019531 138.52821777 -113.63789063 138.2322168 -114.70703125 137.92724609 C-117.09722769 137.2542059 -119.48898764 136.59657173 -121.88671875 135.95166016 C-122.85339478 135.6870977 -122.85339478 135.6870977 -123.83959961 135.41719055 C-125.65729709 134.91989349 -127.47703731 134.43008089 -129.296875 133.94067383 C-132 133 -132 133 -133 131 C-132.44386017 130.84237183 -131.88772034 130.68474365 -131.31472778 130.52233887 C-116.48828152 126.31847421 -101.67023692 122.08596509 -86.86077881 117.82263184 C-84.36960372 117.10628147 -81.87763251 116.39281219 -79.38525391 115.68066406 C-54.47629341 108.96354263 -54.47629341 108.96354263 -34 94 C-33.42378906 93.36578125 -32.84757812 92.7315625 -32.25390625 92.078125 C-28.11468081 86.8787416 -25.67306574 81.1601995 -23.3359375 75.0078125 C-22.99295624 74.10498535 -22.64997498 73.2021582 -22.29660034 72.27197266 C-17.77060106 60.04417057 -14.26704371 47.49191082 -10.68670654 34.96289062 C-9.36995684 30.36149213 -8.04023617 25.76382471 -6.71017456 21.16625977 C-6.00782852 18.73543381 -5.30871573 16.30367063 -4.61331177 13.87084961 C-4.29893158 12.77780518 -3.98455139 11.68476074 -3.66064453 10.55859375 C-3.25049606 9.12471313 -3.25049606 9.12471313 -2.83206177 7.66186523 C-2.01371495 5.04387577 -1.05388016 2.53129332 0 0 Z " fill="#FEFEFE" transform="translate(262,99)"/>
<path d="M0 0 C2.87229939 2.87229939 3.37011663 6.33927024 4.390625 10.1640625 C4.61772156 10.98893158 4.84481812 11.81380066 5.07879639 12.66366577 C6.04861689 16.18642415 7.00332788 19.71321541 7.95751953 23.24023438 C10.40403207 32.25101717 12.90206047 41.19155717 16.16796875 49.9453125 C16.40618347 50.58586578 16.64439819 51.22641907 16.88983154 51.88638306 C20.57196039 61.43519094 25.39541136 67.85264378 34.625 72.375 C45.395498 77.06400309 56.80960892 80.10016285 68.0859375 83.3125 C68.78823486 83.51337219 69.49053223 83.71424438 70.21411133 83.92120361 C73.75733466 84.93455091 77.30250588 85.93947285 80.85253906 86.92871094 C82.1647987 87.30113236 83.47697697 87.67384065 84.7890625 88.046875 C85.96162598 88.37526367 87.13418945 88.70365234 88.34228516 89.04199219 C91 90 91 90 92 92 C91.04971924 92.26627197 90.09943848 92.53254395 89.12036133 92.80688477 C49.58935502 100.87125234 49.58935502 100.87125234 19.63720703 123.98925781 C17.14319003 128.57563085 15.59263036 133.25520305 14.125 138.25 C13.80402344 139.29470459 13.48304688 140.33940918 13.15234375 141.41577148 C12.07922958 144.93756979 11.03647047 148.46724798 10 152 C9.58959143 153.39276246 9.17910709 154.78550259 8.76855469 156.17822266 C6.14074358 165.10789194 3.55553335 174.04938721 1 183 C-1.22261989 180.77738011 -1.57856175 179.60513323 -2.43286133 176.63305664 C-2.69686234 175.72773697 -2.96086334 174.8224173 -3.23286438 173.8896637 C-3.51308945 172.90642624 -3.79331451 171.92318878 -4.08203125 170.91015625 C-4.69069722 168.82485287 -5.29942316 166.73956698 -5.90820312 164.65429688 C-6.85835569 161.3704191 -7.80580043 158.08578035 -8.7512207 154.80053711 C-9.66706406 151.62668688 -10.59294163 148.45588302 -11.51953125 145.28515625 C-11.79368362 144.32013687 -12.067836 143.35511749 -12.35029602 142.3608551 C-15.61131507 131.22648094 -19.81970213 118.58866005 -30 112 C-37.42963818 108.16416045 -45.12986961 105.50229572 -53.125 103.125 C-54.78571533 102.62226563 -54.78571533 102.62226563 -56.47998047 102.109375 C-68.27039028 98.56609127 -80.12652529 95.25250047 -92 92 C-91 90 -91 90 -87.31323242 88.73486328 C-85.66292087 88.25543996 -84.01011325 87.78456085 -82.35546875 87.3203125 C-81.47530594 87.06627655 -80.59514313 86.8122406 -79.68830872 86.55050659 C-76.85677514 85.73458456 -74.0223476 84.92932461 -71.1875 84.125 C-41.70494005 77.61671767 -41.70494005 77.61671767 -19.82568359 59.01098633 C-15.78742555 51.3222167 -13.41997209 43.23201582 -11 34.9375 C-10.56147869 33.46068471 -10.12210277 31.98412292 -9.68188477 30.5078125 C-8.44253151 26.34204275 -7.21820933 22.17199634 -6 18 C-5.69433105 16.95344238 -5.38866211 15.90688477 -5.07373047 14.82861328 C-4.81092285 13.92739746 -4.54811523 13.02618164 -4.27734375 12.09765625 C-3.92639648 10.89604858 -3.92639648 10.89604858 -3.56835938 9.67016602 C-2.98612741 7.66727905 -2.41258712 5.66187092 -1.83984375 3.65625 C-1 1 -1 1 0 0 Z " fill="#FEFEFE" transform="translate(333,301)"/>
<path d="M0 0 C2.13955041 3.20932561 2.93618133 5.80319858 3.98828125 9.50390625 C4.36890093 10.81582477 4.74976864 12.12767136 5.13085938 13.43945312 C5.72006716 15.48962342 6.30628549 17.5405526 6.88745117 19.59301758 C10.67254319 34.90871158 10.67254319 34.90871158 20.04418945 46.93408203 C29.23672878 51.9440217 39.78696196 54.53611611 49.8125 57.3125 C51.1023734 57.67456118 52.39208784 58.03718915 53.68164062 58.40039062 C56.78625515 59.27247336 59.89232132 60.13891336 63 61 C59.53971941 62.92767916 56.02851127 63.91620226 52.21484375 64.953125 C50.86507744 65.32886379 49.51547329 65.70518549 48.16601562 66.08203125 C46.06383964 66.66484646 43.96087999 67.24369116 41.85473633 67.81201172 C26.60399119 71.38966568 26.60399119 71.38966568 14.94677734 80.92138672 C10.32351459 89.60777903 7.63494323 98.91784827 5.0625 108.375 C4.66210507 109.8050515 4.26041729 111.23474166 3.85742188 112.6640625 C2.89009848 116.10536392 1.94004568 119.55113319 1 123 C-1.65678604 120.34321396 -1.97556797 118.03666258 -2.953125 114.41015625 C-3.32904137 113.05392949 -3.70535722 111.6978134 -4.08203125 110.34179688 C-4.664113 108.21746595 -5.24204011 106.09221299 -5.81201172 103.96459961 C-10.21717929 86.57733361 -10.21717929 86.57733361 -22.36767578 74.21240234 C-27.55029724 71.82537785 -32.9434187 70.30812787 -38.4375 68.8125 C-39.60087891 68.48314453 -40.76425781 68.15378906 -41.96289062 67.81445312 C-44.23650848 67.17087981 -46.51169357 66.53281187 -48.78857422 65.90087891 C-53.21068027 64.6603763 -57.60744506 63.34089839 -62 62 C-58.78629854 59.85753236 -56.16383928 59.04353447 -52.4609375 57.9765625 C-51.14452219 57.59117679 -49.82811625 57.20575906 -48.51171875 56.8203125 C-46.45218639 56.22406788 -44.39206898 55.62991064 -42.33154297 55.03710938 C-25.86706811 51.01469825 -25.86706811 51.01469825 -13.85351562 40.07666016 C-9.90425522 32.53086694 -7.57801843 24.6451374 -5.25 16.5 C-4.65419747 14.44720259 -4.05573259 12.39520712 -3.45574951 10.34362793 C-2.91929175 8.50452628 -2.38962842 6.66344672 -1.86035156 4.82226562 C-1 2 -1 2 0 0 Z " fill="#FDFDFD" transform="translate(361,72)"/>
</svg>
